<svg width="25" height="34" viewBox="0 0 25 34" fill="none" xmlns="http://www.w3.org/2000/svg">
<path d="M14.25 33.2301C11.077 33.2301 8.60299 31.9231 7.01599 29.5421V32.7621H0.43399V0.663086H7.01599V13.0641C8.60299 10.6841 11.076 9.37609 14.251 9.37609C20.179 9.37609 24.894 14.6981 24.894 21.2791C24.894 27.8611 20.179 33.2291 14.251 33.2291L14.25 33.2301ZM12.757 15.6321C9.536 15.6321 7.01599 18.1051 7.01599 21.2791C7.01599 24.5011 9.53599 26.9271 12.756 26.9271C15.932 26.9271 18.499 24.4541 18.499 21.2791C18.499 18.1521 15.932 15.6321 12.757 15.6321Z" fill="#FCFCFA"/>
</svg>
